<svg width="48" height="48" viewBox="0 0 48 48" fill="none" xmlns="http://www.w3.org/2000/svg">
<path d="M36.6521 34.6042L28.8478 26.8021C30.9791 24.3625 31.8333 20.8937 31.2291 17.5C30.625 14.1062 28.6333 11.2062 25.75 9.4C22.8666 7.59375 19.3875 7.06042 16.0333 7.94167C12.6791 8.82292 9.80415 11.0417 7.99998 14.0833L15.8041 21.8875C15.9375 21.5125 16.2083 21.1917 16.5625 20.9896C17.2166 20.6146 18.0208 20.4896 18.7916 20.6458C19.5625 20.8021 20.2208 21.2292 20.6583 21.8437C21.0958 22.4583 21.2791 23.2062 21.175 23.9583C21.0708 24.7104 20.6833 25.3917 20.125 25.8875L27.9291 33.6917C28.325 33.525 28.75 33.3042 29.175 33.0417C32.2166 31.2375 34.4375 28.3625 35.3166 25.0083C36.1958 21.6542 35.6625 18.175 33.8583 15.2917L26.0541 23.0958C26.4291 23.2292 26.75 23.5 26.9708 23.8542C27.3458 24.5083 27.4708 25.3125 27.3166 26.0833C27.1625 26.8542 26.7333 27.5125 26.1166 27.95C25.5 28.3875 24.7541 28.5708 24.0041 28.4667C23.2541 28.3625 22.5708 27.975 22.075 27.4167L14.2708 19.6125C11.8333 21.7458 10.4166 24.7625 10.25 27.9583H14.125C14.3333 26.5521 14.9375 25.2833 15.875 24.25L21.4375 29.8125H16.875V33.6917H25.3125L30.7708 39.1458L32.7083 37.2083L36.6521 34.6042Z" fill="black"/>
</svg>
